HIERARCHY
ROOT SimulationBone
{
	OFFSET 0.000000 0.000000 0.000000
	CHANNELS 6 Xposition Yposition Zposition Zrotation Yrotation Xrotation 
	JOINT Hips
	{
		OFFSET 0.000000 0.000000 0.000000
		CHANNELS 6 Xposition Yposition Zposition Zrotation Yrotation Xrotation 
		JOINT RightUpLeg
		{
			OFFSET 0.103457 1.857824 10.548509
			CHANNELS 3 Zrotation Yrotation Xrotation
			JOINT RightLeg
			{
				OFFSET 43.500000 -0.000023 0.000006
				CHANNELS 3 Zrotation Yrotation Xrotation
				JOINT RightFoot
				{
					OFFSET 42.372192 0.000011 -0.000009
					CHANNELS 3 Zrotation Yrotation Xrotation
					JOINT RightToe
					{
						OFFSET 17.300005 0.000002 -0.000010
						CHANNELS 3 Zrotation Yrotation Xrotation
						End Site
						{
							OFFSET 0.000000 0.000000 0.000000
						}
					}
				}
			}
		}
		JOINT LeftUpLeg
		{
			OFFSET 0.103458 1.857836 -10.548506
			CHANNELS 3 Zrotation Yrotation Xrotation
			JOINT LeftLeg
			{
				OFFSET 43.500038 -0.000023 0.000017
				CHANNELS 3 Zrotation Yrotation Xrotation
				JOINT LeftFoot
				{
					OFFSET 42.372269 -0.000019 0.000007
					CHANNELS 3 Zrotation Yrotation Xrotation
					JOINT LeftToe
					{
						OFFSET 17.299999 -0.000003 0.000008
						CHANNELS 3 Zrotation Yrotation Xrotation
						End Site
						{
							OFFSET 0.000000 0.000000 0.000000
						}
					}
				}
			}
		}
		JOINT Spine
		{
			OFFSET 6.901969 -2.603729 0.000003
			CHANNELS 3 Zrotation Yrotation Xrotation
			JOINT Spine1
			{
				OFFSET 12.588093 -0.000007 0.000001
				CHANNELS 3 Zrotation Yrotation Xrotation
				JOINT Spine2
				{
					OFFSET 12.343206 0.000014 -0.000007
					CHANNELS 3 Zrotation Yrotation Xrotation
					JOINT Neck
					{
						OFFSET 25.832899 -0.000010 0.000002
						CHANNELS 3 Zrotation Yrotation Xrotation
						JOINT Head
						{
							OFFSET 11.766599 0.000010 -0.000001
							CHANNELS 3 Zrotation Yrotation Xrotation
							End Site
							{
								OFFSET 0.000000 0.000000 0.000000
							}
						}
					}
					JOINT RightShoulder
					{
						OFFSET 19.745895 -1.480371 6.000111
						CHANNELS 3 Zrotation Yrotation Xrotation
						JOINT RightArm
						{
							OFFSET 11.284124 -0.000010 -0.000007
							CHANNELS 3 Zrotation Yrotation Xrotation
							JOINT RightForeArm
							{
								OFFSET 33.000061 0.000006 0.000028
								CHANNELS 3 Zrotation Yrotation Xrotation
								JOINT RightHand
								{
									OFFSET 25.200001 0.000019 0.000008
									CHANNELS 3 Zrotation Yrotation Xrotation
									End Site
									{
										OFFSET 0.000000 0.000000 0.000000
									}
								}
							}
						}
					}
					JOINT LeftShoulder
					{
						OFFSET 19.746101 -1.480375 -6.000078
						CHANNELS 3 Zrotation Yrotation Xrotation
						JOINT LeftArm
						{
							OFFSET 11.284128 -0.000010 -0.000011
							CHANNELS 3 Zrotation Yrotation Xrotation
							JOINT LeftForeArm
							{
								OFFSET 33.000095 0.000022 0.000002
								CHANNELS 3 Zrotation Yrotation Xrotation
								JOINT LeftHand
								{
									OFFSET 25.199768 0.000129 0.000422
									CHANNELS 3 Zrotation Yrotation Xrotation
									End Site
									{
										OFFSET 0.000000 0.000000 0.000000
									}
								}
							}
						}
					}
				}
			}
		}
	}
}
MOTION
Frames: 13
Frame Time: 0.016667
-251.496256 0.000000 -211.159613 0.000000 2.507964 0.000000 -5.118198 88.170273 1.157554 82.348503 1.722160 -178.303009 141.189776 2.617707 -176.899891 -20.677378 1.987718 -7.712014 75.279455 3.943520 -5.559955 21.454560 0.003112 0.000015 178.111895 0.806305 -174.048465 -23.553740 -0.157070 -1.531253 96.704440 0.976709 -0.345109 21.454551 -0.003092 0.000000 6.789243 -0.090251 1.968218 3.561570 -0.240138 3.932769 3.244274 -0.216540 3.934143 -10.639626 -19.914538 1.905612 -34.015799 13.861106 -12.256160 -171.689890 -75.564202 -9.910702 30.034694 58.306147 33.763629 -72.337863 -7.447083 2.101245 -6.312025 -5.730892 19.804776 167.101121 84.987560 -11.388089 -19.901145 -63.834577 10.625982 -92.775763 2.282677 -2.588058 2.521947 -2.512370 -36.818639 
-250.149163 0.000000 -211.355045 0.000000 2.213358 0.000000 -5.192650 87.992886 1.188370 82.355873 1.733161 -178.752234 141.789424 2.196046 -176.178104 -17.037372 2.061315 -8.792505 74.456222 4.745624 -5.332800 21.454558 0.003109 0.000016 179.046660 0.896372 -174.461981 -23.189976 -0.093263 -1.553741 96.785116 0.997108 -0.297992 21.454549 -0.003092 0.000000 6.808486 -0.123787 2.012710 3.598796 -0.309194 4.020660 3.281509 -0.285067 4.022448 -10.485343 -19.874067 1.974258 -33.893299 13.982409 -12.187766 -171.106719 -75.303465 -10.506428 30.735796 58.032044 34.111215 -71.710441 -7.612354 2.087255 -6.810337 -6.224733 20.118884 166.360560 84.977424 -12.134449 -23.589075 -63.932325 14.365088 -91.833947 2.213058 -2.539468 2.677928 -2.334734 -36.188419 
-248.791997 0.000000 -211.573090 0.000000 1.978501 0.000000 -5.219883 87.744087 1.221410 82.414386 1.894153 -179.194679 142.354009 1.620804 -175.147880 -14.329844 2.197274 -9.558179 73.941400 5.366631 -4.996435 21.454560 0.003109 0.000017 -179.983271 0.857498 -174.844892 -22.954970 -0.028357 -1.552761 96.884402 1.002985 -0.233842 21.454551 -0.003092 0.000000 6.826698 -0.120390 2.050845 3.635197 -0.304223 4.096957 3.317946 -0.279635 4.098713 -10.274043 -19.788813 2.023835 -33.804962 14.058132 -12.094450 -170.517598 -75.011517 -11.108606 31.454253 57.780591 34.453850 -71.216291 -7.753483 2.076178 -7.345922 -6.544435 20.483082 165.763593 84.969842 -12.736089 -27.018368 -63.799907 17.023556 -90.669667 2.908472 -2.538296 2.840241 -2.030878 -35.700216 
-247.426190 0.000000 -211.811733 0.000000 1.800763 0.000000 -5.210224 87.452140 1.246194 82.538814 2.099594 -179.640718 142.828323 1.003661 -174.276968 -12.807720 2.329330 -10.144997 73.594152 5.861606 -4.686967 21.454561 0.003111 0.000017 -178.994196 0.821370 -175.152394 -22.896442 0.054468 -1.551425 96.977441 1.007996 -0.172589 21.454552 -0.003092 -0.000001 6.849779 -0.105833 2.086146 3.681729 -0.277058 4.167919 3.364527 -0.252041 4.169509 -9.993607 -19.688093 2.051642 -33.752410 14.123383 -12.006464 -169.968348 -74.716326 -11.670486 32.188606 57.565178 34.780010 -70.878714 -7.853861 2.068767 -7.877846 -6.704017 20.871061 165.170541 84.979282 -13.333074 -30.054694 -63.538602 18.704671 -89.323756 4.173401 -2.567854 3.050639 -1.617733 -35.431871 
-246.053177 0.000000 -212.068954 0.000000 1.677572 0.000000 -5.174111 87.145309 1.252614 82.744652 2.244298 179.899153 143.169944 0.465500 -174.029942 -12.723871 2.405726 -10.692829 73.271420 6.284715 -4.545719 21.454562 0.003111 0.000017 -178.003923 0.917801 -175.335204 -23.062176 0.172139 -1.573064 97.039399 1.025911 -0.134130 21.454550 -0.003092 -0.000001 6.883596 -0.105899 2.122118 3.749209 -0.279568 4.239741 3.432052 -0.254118 4.241344 -9.631924 -19.601140 2.054831 -33.737216 14.213341 -11.953952 -169.497304 -74.446299 -12.152798 32.938405 57.399371 35.079226 -70.721021 -7.896860 2.065775 -8.364916 -6.718476 21.256425 164.434109 85.019668 -14.073085 -32.613053 -63.237933 19.560962 -87.836935 5.812779 -2.615929 3.348429 -1.111660 -35.460490 
-244.674389 0.000000 -212.342738 0.000000 1.606406 0.000000 -5.122587 86.864327 1.230884 83.036026 2.226968 179.429341 143.389748 0.132505 -174.771159 -14.052858 2.426417 -11.281782 72.672365 6.657304 -4.665869 21.454560 0.003108 0.000017 -177.027150 1.262955 -175.336997 -23.456406 0.325502 -1.650188 97.002667 1.077835 -0.125698 21.454544 -0.003092 -0.000001 6.931722 -0.143762 2.157642 3.843909 -0.358188 4.309389 3.526781 -0.332318 4.311463 -9.199968 -19.553230 2.035613 -33.754364 14.350298 -11.956273 -169.082278 -74.220605 -12.578183 33.675280 57.300337 35.338697 -70.751280 -7.875499 2.067265 -8.770606 -6.613765 21.616539 163.480885 85.093075 -15.029796 -34.630786 -62.963382 19.740825 -86.257368 7.638665 -2.675086 3.763090 -0.532302 -35.849066 
-243.291261 0.000000 -212.631065 0.000000 1.584793 0.000000 -5.068977 86.699806 1.171622 83.368063 1.959741 179.015588 143.672509 0.139801 -176.472458 -15.651546 2.599298 -11.762510 70.870288 6.868467 -4.938272 21.454558 0.003106 0.000017 -176.063371 1.923997 -175.087637 -23.908794 0.451623 -1.849490 96.628570 1.214051 -0.104411 21.454543 -0.003092 0.000000 6.988685 -0.232099 2.173176 3.954434 -0.537411 4.337282 3.637306 -0.511370 4.340436 -8.801351 -19.554374 2.017437 -33.772330 14.505070 -11.989583 -168.485193 -74.019521 -13.190721 34.256751 57.299411 35.533754 -70.916692 -7.821496 2.071425 -9.077046 -6.456434 21.942965 162.601378 85.157084 -15.912457 -36.042955 -62.727786 19.281529 -84.665289 9.489009 -2.733680 4.293815 0.082739 -36.607385 
-241.905226 0.000000 -212.931920 0.000000 1.610306 0.000000 -5.020526 86.721158 1.068053 83.688505 1.396190 178.721550 144.160447 0.576193 -178.961009 -16.483290 3.098721 -11.911815 67.461302 6.816492 -5.082485 21.454557 0.003107 0.000017 -175.132554 2.918727 -174.572044 -24.297063 0.496411 -2.212644 95.705558 1.469321 -0.032909 21.454551 -0.003092 0.000000 7.047938 -0.376238 2.152056 4.067688 -0.827003 4.289802 3.750519 -0.801243 4.294703 -8.551397 -19.611331 2.019498 -33.762342 14.644946 -12.033786 -167.558415 -73.806844 -14.142055 34.518791 57.409947 35.611333 -71.133778 -7.771077 2.075764 -9.293079 -6.318629 22.228646 162.128924 85.164053 -16.387805 -36.785090 -62.533786 18.184196 -83.121630 11.243453 -2.788902 4.903818 0.719060 -37.694244 
-240.517716 0.000000 -213.243283 0.000000 1.680558 0.000000 -4.958197 86.863113 0.923375 83.962630 0.647007 178.544968 144.720274 1.299606 178.120474 -17.040518 3.652139 -11.408830 64.758566 6.629664 -4.357162 21.454558 0.003109 0.000017 -174.371150 4.125793 -174.017442 -24.866521 0.504808 -2.653788 94.300958 1.784793 0.062083 21.454560 -0.003092 -0.000000 7.107403 -0.562777 2.107606 4.180239 -1.200467 4.193934 3.862992 -1.175277 4.201088 -8.519828 -19.731757 2.023162 -33.733904 14.774485 -12.127791 -166.678198 -73.531388 -15.046393 34.322031 57.556568 35.413061 -71.257191 -7.739825 2.076913 -9.512894 -6.254152 22.454337 162.027355 85.083613 -16.493808 -36.812431 -62.411535 16.432282 -81.574813 12.924507 -2.840032 5.440837 1.464087 -38.915695 
-239.130165 0.000000 -213.563138 0.000000 1.793195 0.000000 -4.864187 87.042084 0.750803 84.161111 -0.134841 178.486175 145.196058 2.118758 175.310577 -18.001622 3.943308 -10.174038 64.899206 6.475813 -2.382402 21.454558 0.003110 0.000017 -173.931717 5.381116 -173.617270 -25.896945 0.519279 -3.074933 92.501716 2.083654 0.099160 21.454560 -0.003092 -0.000000 7.164391 -0.769794 2.056990 4.287596 -1.614452 4.084720 3.970243 -1.589912 4.094370 -8.731498 -19.916421 1.999330 -33.706275 14.897174 -12.312882 -166.267583 -73.183092 -15.469325 33.591539 57.673534 34.831051 -71.159992 -7.743766 2.072696 -9.796429 -6.301438 22.588935 162.235665 84.918816 -16.291662 -36.131096 -62.396870 14.009602 -79.916338 14.597403 -2.883856 5.736036 2.399998 -39.966386 
-237.744006 0.000000 -213.889467 0.000000 1.945888 0.000000 -4.752374 87.235901 0.593246 84.262307 -0.785010 178.614843 145.562846 2.934800 173.716354 -19.280389 3.908971 -9.178762 66.643712 6.420306 -0.573666 21.454558 0.003109 0.000017 -173.871317 6.453996 -173.151579 -27.436133 0.483104 -3.452129 90.195666 2.307240 -0.166952 21.454558 -0.003092 0.000000 7.209570 -0.959873 2.002684 4.372427 -1.993941 3.968597 4.054952 -1.970094 3.980538 -9.076609 -20.138394 1.912246 -33.698390 14.974812 -12.580291 -166.465602 -72.905053 -15.266703 32.495334 57.833259 34.074744 -70.850644 -7.821279 2.065866 -9.980505 -6.458524 22.566171 163.047635 84.791451 -15.479601 -34.950883 -62.551062 10.937176 -77.924357 16.357519 -2.924272 5.677905 3.518622 -40.242415 
-236.360672 0.000000 -214.220252 0.000000 2.136332 0.000000 -4.640405 87.443223 0.491515 84.263928 -1.170631 178.985961 145.884103 3.667330 174.083900 -20.599853 3.567545 -9.248722 68.299844 6.567710 -0.253808 21.454558 0.003107 0.000017 -174.189340 7.164150 -172.383777 -29.444784 0.359347 -3.780841 87.231330 2.402295 -0.894997 21.454556 -0.003092 0.000000 7.235259 -1.097136 1.944239 4.420476 -2.266976 3.846268 4.102885 -2.243863 3.859861 -9.413932 -20.370421 1.736323 -33.715745 14.966042 -12.899386 -167.317819 -72.839700 -14.390571 31.262275 58.129244 33.393117 -70.387818 -8.005232 2.059827 -9.928001 -6.711301 22.463476 164.624782 84.812223 -13.889859 -33.467931 -62.908366 7.233371 -75.381291 18.267201 -2.951057 5.279926 4.778518 -39.164268 
-234.981596 0.000000 -214.553477 0.000000 2.362232 0.000000 -4.527857 87.684601 0.448837 84.238663 -1.296874 179.524611 146.330901 4.246903 175.133195 -21.683680 3.203278 -9.607079 69.687565 6.678751 -0.655150 21.454560 0.003105 0.000017 -174.779049 7.606201 -171.429265 -31.769200 0.284535 -4.077535 83.500605 2.407894 -1.745946 21.454555 -0.003092 0.000000 7.247156 -1.167296 1.883815 4.443354 -2.405325 3.722629 4.125678 -2.382954 3.737062 -9.613151 -20.609852 1.496715 -33.712214 14.859442 -13.202508 -168.770476 -72.989460 -12.896928 30.145807 58.584962 32.901474 -69.896139 -8.284121 2.058833 -9.835925 -7.038121 22.973556 166.096810 84.940636 -12.401606 -31.741818 -63.353882 2.986511 -72.218622 20.223024 -2.954474 4.915788 6.066426 -36.528851 
